<svg width="282" height="491" viewBox="0 0 282 491" fill="none" xmlns="http://www.w3.org/2000/svg">
<path fill-rule="evenodd" clip-rule="evenodd" d="M47.9221 354.356H262.923C261.93 328.806 246.262 317.89 222.367 317.286C206.594 274.476 172.035 318.153 169.547 284.289C166.624 244.467 165.784 197.532 165.784 197.532L145.409 197.87C145.409 197.87 143.707 222.998 140.177 274.191C137.673 310.452 112.169 276.823 78.6686 298.798C61.758 309.891 62.5121 336.728 62.5121 336.728C62.5121 336.728 47.9221 337.459 47.9221 354.356Z" fill="#405FD3"/>
<path fill-rule="evenodd" clip-rule="evenodd" d="M189.051 354.356H241.787C239.493 343.026 229.699 334.761 218.162 333.628C215.95 333.417 213.676 333.461 211.377 333.795C210.054 333.991 208.767 334.27 207.52 334.638C204.102 335.644 201.006 337.272 198.359 339.371C193.582 343.144 190.251 348.441 189.051 354.356Z" fill="#C3DAFE"/>
<path fill-rule="evenodd" clip-rule="evenodd" d="M71.8429 354.356H100.382C99.2123 349.142 95.4878 344.919 90.5882 343.315C89.4335 342.937 88.2125 342.702 86.9403 342.638C86.2097 342.599 85.4842 342.618 84.7792 342.692C78.5614 343.325 73.3654 348.043 71.8429 354.356Z" fill="#C3DAFE"/>
<path fill-rule="evenodd" clip-rule="evenodd" d="M118.243 354.356H199.795C200.132 351.128 200.055 347.812 199.524 344.462C199.248 342.721 198.855 341.02 198.359 339.371C192.719 320.704 173.401 308.48 152.842 311.482C147.983 312.193 143.457 313.695 139.38 315.833C125.243 323.229 116.522 338.258 118.243 354.356Z" fill="#C3DAFE"/>
<path fill-rule="evenodd" clip-rule="evenodd" d="M182.995 280.114C183.664 284.334 187.769 287.234 192.164 286.592C196.559 285.95 199.58 282.009 198.911 277.79C198.242 273.57 194.138 270.67 189.742 271.312C185.348 271.954 182.327 275.895 182.995 280.114Z" fill="#C3DAFE"/>
<path fill-rule="evenodd" clip-rule="evenodd" d="M124.552 281.58C124.828 283.321 126.522 284.518 128.336 284.253C130.15 283.988 131.397 282.362 131.12 280.62C130.844 278.879 129.15 277.682 127.337 277.947C125.523 278.212 124.276 279.838 124.552 281.58Z" fill="#C3DAFE"/>
<path fill-rule="evenodd" clip-rule="evenodd" d="M28.9869 334.606C29.624 338.625 33.5335 341.386 37.7193 340.775C41.9052 340.164 44.7822 336.41 44.145 332.392C43.5079 328.373 39.5985 325.611 35.4126 326.223C31.2267 326.834 28.3498 330.588 28.9869 334.606Z" fill="#C3DAFE"/>
<path fill-rule="evenodd" clip-rule="evenodd" d="M179.139 182.423H130.459C127.637 182.423 125.35 180.227 125.35 177.518C125.35 174.809 127.637 172.613 130.459 172.613H179.139C181.961 172.613 184.249 174.809 184.249 177.518C184.249 180.227 181.961 182.423 179.139 182.423ZM168.319 203.101H141.28L131.062 182.423H178.537L168.319 203.101Z" fill="#F9E9DE"/>
<path opacity="0.402158" fill-rule="evenodd" clip-rule="evenodd" d="M141.366 203.101H168.405L178.623 182.423H131.148L141.366 203.101Z" fill="black"/>
<path d="M197.696 237.375C193.731 239.484 190.816 243.429 190.229 248.145C190.164 248.666 190.129 249.183 190.12 249.695C190.082 252.015 193.002 253.031 194.415 251.192C196.026 249.094 198.162 247.884 200.394 248.082C204.678 248.462 207.698 253.886 207.14 260.2C207.139 260.213 207.138 260.227 207.136 260.24C206.966 262.122 208.884 263.481 210.574 262.643C214.857 260.521 217.965 256.281 218.417 251.165C218.958 245.045 215.534 239.49 210.272 237.041V137.229C214.725 134.83 217.752 130.121 217.752 124.704C217.752 118.813 214.172 113.759 209.072 111.604C207.224 107.983 203.458 105.489 199.138 105.489H110.825C106.889 105.489 103.413 107.558 101.429 110.664C94.9304 109.637 88.3826 113.264 85.9563 119.666C83.3381 126.574 86.4519 134.251 92.9414 137.451V238.17C88.2488 240.926 85.3671 246.272 86.0247 252.029C86.6077 257.132 89.8233 261.291 94.1584 263.303C95.8709 264.098 97.7526 262.689 97.534 260.813C97.5324 260.799 97.5314 260.786 97.5294 260.773C96.8095 254.476 99.6895 248.975 103.962 248.486C106.189 248.231 108.355 249.386 110.02 251.442C111.479 253.244 114.372 252.153 114.275 249.835C114.253 249.324 114.204 248.807 114.126 248.289C113.369 243.255 109.965 239.175 105.517 237.315V144.738C107.098 145.601 108.907 146.093 110.825 146.093H197.696V237.375Z" fill="#F9E9DE"/>
<path fill-rule="evenodd" clip-rule="evenodd" d="M153.519 135.148C156.891 135.148 159.65 132.386 159.65 129.01V121.108C159.65 117.733 156.891 114.971 153.519 114.971H119.604C116.232 114.971 113.473 117.733 113.473 121.108V129.01C113.473 132.386 116.232 135.148 119.604 135.148H153.519ZM154.763 125.059C154.763 128.925 151.633 132.059 147.771 132.059C143.91 132.059 140.78 128.925 140.78 125.059C140.78 121.193 143.91 118.06 147.771 118.06C151.633 118.06 154.763 121.193 154.763 125.059ZM135.575 125.059C135.575 128.925 132.445 132.059 128.584 132.059C124.723 132.059 121.592 128.925 121.592 125.059C121.592 121.193 124.723 118.06 128.584 118.06C132.445 118.06 135.575 121.193 135.575 125.059Z" fill="#19141E"/>
<path opacity="0.401228" fill-rule="evenodd" clip-rule="evenodd" d="M105.517 237.103V144.77C104.021 143.366 103.021 142.349 102.517 141.717C101.744 140.748 101.077 139.811 100.677 139.317C100.571 139.187 100.449 138.97 100.425 138.924C100.4 138.878 100.406 138.875 100.362 138.879C99.9157 138.913 99.6057 138.924 99.2293 138.924C98.357 138.924 97.2969 138.826 96.1123 138.576C95.7205 138.493 95.171 138.335 94.4975 138.109C94.1815 138.003 93.6628 137.785 92.9413 137.454V237.103H105.517ZM101.429 110.664C94.9303 109.637 88.3824 113.264 85.9562 119.666C83.1748 127.004 86.862 135.211 94.193 137.996C96.2403 138.773 98.3552 139.046 100.401 138.875C99.9348 137.649 99.6794 136.321 99.6794 134.936V116.646C99.6794 114.449 100.322 112.395 101.429 110.664ZM206.968 138.503C206.867 138.526 206.763 138.547 206.656 138.567C206.26 138.641 205.8 138.738 205.278 138.813C204.713 138.881 204.138 138.916 203.555 138.916C195.714 138.916 189.359 132.553 189.359 124.704C189.359 116.855 195.714 110.491 203.555 110.491C205.512 110.491 207.376 110.888 209.071 111.604C207.224 107.983 203.458 105.489 199.138 105.489H185.153C179.024 105.489 174.009 110.509 174.009 116.646V134.936C174.009 141.072 179.024 146.093 185.153 146.093H197.695V237.103H210.271V137.234C210.184 137.28 210.098 137.325 210.014 137.367L210.014 137.364C209.057 137.854 208.036 138.239 206.968 138.503Z" fill="black"/>
<path d="M92.9417 222.996H90.4417V220.496H92.9417V222.996ZM105.518 222.996V220.496H108.018V222.996H105.518ZM92.9417 227.996V230.496H90.4417V227.996H92.9417ZM105.518 227.996H108.018V230.496H105.518V227.996ZM92.9417 212.255H90.4417V209.755H92.9417V212.255ZM105.518 212.255V209.755H108.018V212.255H105.518ZM92.9417 217.255V219.755H90.4417V217.255H92.9417ZM105.518 217.255H108.018V219.755H105.518V217.255ZM92.9417 201.514H90.4417V199.014H92.9417V201.514ZM105.518 201.514V199.014H108.018V201.514H105.518ZM92.9417 206.514V209.014H90.4417V206.514H92.9417ZM105.518 206.514H108.018V209.014H105.518V206.514ZM92.9417 190.773H90.4417V188.273H92.9417V190.773ZM105.518 190.773V188.273H108.018V190.773H105.518ZM92.9417 195.773V198.273H90.4417V195.773H92.9417ZM105.518 195.773H108.018V198.273H105.518V195.773ZM92.9417 180.031H90.4417V177.531H92.9417V180.031ZM105.518 180.031V177.531H108.018V180.031H105.518ZM92.9417 185.031V187.531H90.4417V185.031H92.9417ZM105.518 185.031H108.018V187.531H105.518V185.031ZM92.9417 169.29H90.4417V166.79H92.9417V169.29ZM105.518 169.29V166.79H108.018V169.29H105.518ZM92.9417 174.29V176.79H90.4417V174.29H92.9417ZM105.518 174.29H108.018V176.79H105.518V174.29ZM92.9417 158.549H90.4417V156.049H92.9417V158.549ZM105.518 158.549V156.049H108.018V158.549H105.518ZM92.9417 163.549V166.049H90.4417V163.549H92.9417ZM105.518 163.549H108.018V166.049H105.518V163.549ZM92.9417 147.808H90.4417V145.308H92.9417V147.808ZM105.518 147.808V145.308H108.018V147.808H105.518ZM92.9417 152.808V155.308H90.4417V152.808H92.9417ZM105.518 152.808H108.018V155.308H105.518V152.808ZM197.696 222.996H195.196V220.496H197.696V222.996ZM210.272 222.996V220.496H212.772V222.996H210.272ZM197.696 227.996V230.496H195.196V227.996H197.696ZM210.272 227.996H212.772V230.496H210.272V227.996ZM197.696 212.255H195.196V209.755H197.696V212.255ZM210.272 212.255V209.755H212.772V212.255H210.272ZM197.696 217.255V219.755H195.196V217.255H197.696ZM210.272 217.255H212.772V219.755H210.272V217.255ZM197.696 201.514H195.196V199.014H197.696V201.514ZM210.272 201.514V199.014H212.772V201.514H210.272ZM197.696 206.514V209.014H195.196V206.514H197.696ZM210.272 206.514H212.772V209.014H210.272V206.514ZM197.696 190.773H195.196V188.273H197.696V190.773ZM210.272 190.773V188.273H212.772V190.773H210.272ZM197.696 195.773V198.273H195.196V195.773H197.696ZM210.272 195.773H212.772V198.273H210.272V195.773ZM197.696 180.031H195.196V177.531H197.696V180.031ZM210.272 180.031V177.531H212.772V180.031H210.272ZM197.696 185.031V187.531H195.196V185.031H197.696ZM210.272 185.031H212.772V187.531H210.272V185.031ZM197.696 169.29H195.196V166.79H197.696V169.29ZM210.272 169.29V166.79H212.772V169.29H210.272ZM197.696 174.29V176.79H195.196V174.29H197.696ZM210.272 174.29H212.772V176.79H210.272V174.29ZM197.696 158.549H195.196V156.049H197.696V158.549ZM210.272 158.549V156.049H212.772V158.549H210.272ZM197.696 163.549V166.049H195.196V163.549H197.696ZM210.272 163.549H212.772V166.049H210.272V163.549ZM197.696 147.808H195.196V145.308H197.696V147.808ZM210.272 147.808V145.308H212.772V147.808H210.272ZM197.696 152.808V155.308H195.196V152.808H197.696ZM210.272 152.808H212.772V155.308H210.272V152.808ZM92.9417 220.496H105.518V225.496H92.9417V220.496ZM90.4417 227.996V222.996H95.4417V227.996H90.4417ZM105.518 230.496H92.9417V225.496H105.518V230.496ZM108.018 222.996V227.996H103.018V222.996H108.018ZM92.9417 209.755H105.518V214.755H92.9417V209.755ZM90.4417 217.255V212.255H95.4417V217.255H90.4417ZM105.518 219.755H92.9417V214.755H105.518V219.755ZM108.018 212.255V217.255H103.018V212.255H108.018ZM92.9417 199.014H105.518V204.014H92.9417V199.014ZM90.4417 206.514V201.514H95.4417V206.514H90.4417ZM105.518 209.014H92.9417V204.014H105.518V209.014ZM108.018 201.514V206.514H103.018V201.514H108.018ZM92.9417 188.273H105.518V193.273H92.9417V188.273ZM90.4417 195.773V190.773H95.4417V195.773H90.4417ZM105.518 198.273H92.9417V193.273H105.518V198.273ZM108.018 190.773V195.773H103.018V190.773H108.018ZM92.9417 177.531H105.518V182.531H92.9417V177.531ZM90.4417 185.031V180.031H95.4417V185.031H90.4417ZM105.518 187.531H92.9417V182.531H105.518V187.531ZM108.018 180.031V185.031H103.018V180.031H108.018ZM92.9417 166.79H105.518V171.79H92.9417V166.79ZM90.4417 174.29V169.29H95.4417V174.29H90.4417ZM105.518 176.79H92.9417V171.79H105.518V176.79ZM108.018 169.29V174.29H103.018V169.29H108.018ZM92.9417 156.049H105.518V161.049H92.9417V156.049ZM90.4417 163.549V158.549H95.4417V163.549H90.4417ZM105.518 166.049H92.9417V161.049H105.518V166.049ZM108.018 158.549V163.549H103.018V158.549H108.018ZM92.9417 145.308H105.518V150.308H92.9417V145.308ZM90.4417 152.808V147.808H95.4417V152.808H90.4417ZM105.518 155.308H92.9417V150.308H105.518V155.308ZM108.018 147.808V152.808H103.018V147.808H108.018ZM197.696 220.496H210.272V225.496H197.696V220.496ZM195.196 227.996V222.996H200.196V227.996H195.196ZM210.272 230.496H197.696V225.496H210.272V230.496ZM212.772 222.996V227.996H207.772V222.996H212.772ZM197.696 209.755H210.272V214.755H197.696V209.755ZM195.196 217.255V212.255H200.196V217.255H195.196ZM210.272 219.755H197.696V214.755H210.272V219.755ZM212.772 212.255V217.255H207.772V212.255H212.772ZM197.696 199.014H210.272V204.014H197.696V199.014ZM195.196 206.514V201.514H200.196V206.514H195.196ZM210.272 209.014H197.696V204.014H210.272V209.014ZM212.772 201.514V206.514H207.772V201.514H212.772ZM197.696 188.273H210.272V193.273H197.696V188.273ZM195.196 195.773V190.773H200.196V195.773H195.196ZM210.272 198.273H197.696V193.273H210.272V198.273ZM212.772 190.773V195.773H207.772V190.773H212.772ZM197.696 177.531H210.272V182.531H197.696V177.531ZM195.196 185.031V180.031H200.196V185.031H195.196ZM210.272 187.531H197.696V182.531H210.272V187.531ZM212.772 180.031V185.031H207.772V180.031H212.772ZM197.696 166.79H210.272V171.79H197.696V166.79ZM195.196 174.29V169.29H200.196V174.29H195.196ZM210.272 176.79H197.696V171.79H210.272V176.79ZM212.772 169.29V174.29H207.772V169.29H212.772ZM197.696 156.049H210.272V161.049H197.696V156.049ZM195.196 163.549V158.549H200.196V163.549H195.196ZM210.272 166.049H197.696V161.049H210.272V166.049ZM212.772 158.549V163.549H207.772V158.549H212.772ZM197.696 145.308H210.272V150.308H197.696V145.308ZM195.196 152.808V147.808H200.196V152.808H195.196ZM210.272 155.308H197.696V150.308H210.272V155.308ZM212.772 147.808V152.808H207.772V147.808H212.772Z" fill="#19141E"/>
<path fill-rule="evenodd" clip-rule="evenodd" d="M164.317 172.579H146.553V144.361H164.317V172.579Z" fill="#19141E"/>
<path fill-rule="evenodd" clip-rule="evenodd" d="M127.604 78.5373H120.783C118.07 78.5373 115.851 76.3154 115.851 73.5995C115.851 70.884 118.07 68.6616 120.783 68.6616H127.604C130.317 68.6616 132.536 70.884 132.536 73.5995C132.536 76.3154 130.317 78.5373 127.604 78.5373Z" fill="#19141E"/>
<path d="M154.274 87.8702C153.245 85.0798 149.339 83.4326 145.551 84.1909C141.762 84.9493 139.526 87.8261 140.555 90.6166L145.75 104.694C146.779 107.484 147.125 108.284 151.8 108.284C153.779 108.284 156.797 108.284 158.504 108.284C160.946 108.284 161.696 106.704 159.469 101.947L154.274 87.8702Z" fill="#19141E"/>
<path fill-rule="evenodd" clip-rule="evenodd" d="M129.724 29.7896C132.654 29.7896 135.03 32.1674 135.03 35.1008C135.03 38.0341 132.654 40.4125 129.724 40.4125C126.794 40.4125 124.418 38.0341 124.418 35.1008C124.418 32.1674 126.794 29.7896 129.724 29.7896ZM169.693 79.8753C169.693 91.5821 160.125 101.161 148.431 101.161H146.388C134.694 101.161 125.126 91.5821 125.126 79.8753V68.3864C125.126 56.6796 134.694 47.1011 146.388 47.1011H148.431C160.125 47.1011 169.693 56.6796 169.693 68.3864V79.8753Z" fill="#F9E9DE"/>
<path d="M131.856 39.9663C135.334 42.9987 137.314 46.3521 137.912 50.9197C138.022 51.76 138.791 52.352 139.63 52.242C140.47 52.132 141.061 51.3616 140.951 50.5213C140.263 45.2612 138.009 41.3646 134.204 37.9473C133.642 38.8328 132.825 39.5403 131.856 39.9663Z" fill="#19141E"/>
<path fill-rule="evenodd" clip-rule="evenodd" d="M140.448 69.8795C140.181 71.3965 141.192 72.843 142.707 73.111C144.222 73.379 145.667 72.3668 145.935 70.8498C146.203 69.3332 145.192 67.8862 143.676 67.6182C142.161 67.3502 140.716 68.3624 140.448 69.8795Z" fill="#19141E"/>
<path fill-rule="evenodd" clip-rule="evenodd" d="M125.985 69.9385C125.717 71.4556 126.728 72.9021 128.243 73.1701C129.759 73.4381 131.203 72.4259 131.471 70.9088C131.739 69.3923 130.728 67.9453 129.212 67.6773C127.698 67.4093 126.252 68.422 125.985 69.9385Z" fill="#19141E"/>
<path opacity="0.403971" fill-rule="evenodd" clip-rule="evenodd" d="M137.178 66.8677L130.148 78.0354L137.715 78.2185L137.178 66.8677Z" fill="black"/>
<path fill-rule="evenodd" clip-rule="evenodd" d="M172.669 77.4807H166.051V67.605H172.669C175.382 67.605 177.601 69.8274 177.601 72.5428C177.601 75.2588 175.382 77.4807 172.669 77.4807Z" fill="#19141E"/>
<path d="M138.608 83.4284C141.955 83.9962 145.085 82.0822 145.424 80.0762" stroke="#19141E" stroke-width="4"/>
</svg>
